<svg xmlns="http://www.w3.org/2000/svg" xmlns:xlink="http://www.w3.org/1999/xlink" preserveAspectRatio="xMidYMid meet" version="1.0" viewBox="-15 -15 180 180"><defs><filter x="0%" y="0%" width="100%" height="100%" id="c282de7530"><feColorMatrix values="0 0 0 0 1 0 0 0 0 1 0 0 0 0 1 0 0 0 1 0" color-interpolation-filters="sRGB"/></filter><mask id="d4caa93ac3"><g filter="url(#c282de7530)"><rect x="-15" width="180" fill="#000000" y="-15" height="179.999997" fill-opacity="0.8588"/></g></mask><clipPath id="64682d5ea9"><path d="M 0.859375 0 L 117.109375 0 L 117.109375 150 L 0.859375 150 Z M 0.859375 0 " clip-rule="nonzero"/></clipPath><clipPath id="f630672b0e"><rect x="0" width="118" y="0" height="150"/></clipPath></defs><g mask="url(#d4caa93ac3)"><g transform="matrix(1, 0, 0, 1, 16, -0.000000000000007527)"><g clip-path="url(#f630672b0e)"><g clip-path="url(#64682d5ea9)"><path fill="#03989e" d="M 117.109375 138.664062 C 117.109375 98.640625 91.066406 66.214844 58.984375 66.214844 C 26.902344 66.214844 0.859375 98.640625 0.859375 138.664062 C 0.859375 144.90625 26.902344 149.996094 58.984375 149.996094 C 91.066406 149.996094 117.109375 144.90625 117.109375 138.664062 Z M 58.984375 0.00390625 C 76.484375 0.00390625 90.65625 14.183594 90.65625 31.6875 C 90.65625 49.1875 76.484375 63.367188 58.984375 63.367188 C 41.484375 63.367188 27.308594 49.1875 27.308594 31.6875 C 27.308594 14.183594 41.484375 0.00390625 58.984375 0.00390625 Z M 58.984375 0.00390625 " fill-opacity="1" fill-rule="evenodd"/></g></g></g></g></svg>